<?xml version="1.0" encoding="utf-8"?>
<!-- Generator: Adobe Illustrator 28.4.1, SVG Export Plug-In . SVG Version: 6.00 Build 0)  -->
<svg version="1.1" id="Camada_1" xmlns="http://www.w3.org/2000/svg" xmlns:xlink="http://www.w3.org/1999/xlink" x="0px" y="0px"
	 viewBox="0 0 1920 1080" style="enable-background:new 0 0 1920 1080;" xml:space="preserve">
<style type="text/css">
	.st0{fill:url(#SVGID_1_);}
	.st1{fill:url(#SVGID_00000168833757178572174570000014287915169611215491_);}
	.st2{fill:url(#SVGID_00000047768009258311027200000010169142879562812058_);}
	.st3{fill:url(#SVGID_00000176001318427004312740000002848834090330737592_);}
	.st4{fill:url(#SVGID_00000148628852344948419560000015639485340996570800_);}
	.st5{fill:url(#SVGID_00000085239828494942902050000006373163587171530135_);stroke:#000000;stroke-miterlimit:10;}
	.st6{fill:none;}
</style>
<linearGradient id="SVGID_1_" gradientUnits="userSpaceOnUse" x1="1124" y1="540" x2="2168" y2="540">
	<stop  offset="0.2811" style="stop-color:#236ED9"/>
	<stop  offset="0.4113" style="stop-color:#2382D9"/>
	<stop  offset="0.6162" style="stop-color:#23A8D9"/>
</linearGradient>
<path class="st0" d="M1922.1,1080C1922.1,1080,2475.37,1080,1922.1,1080h-525.33c-29.3,0-57.5-12.42-76.79-34.84
	c-30.33-35.25-79.57-96.35,55.51-188.11c30.27-20.56,57.85-23.52,55.98-60.49l15.64-279.09c-0.27-5.38-0.33-10.77,0.19-16.13
	c3.12-32.05-51.39-140.93-73.17-182.93c-5.6-10.79-12.98-20.49-21.86-28.69c-59.88-55.34-301.14-283.66-206.54-284.87
	C1253.38,3.46,1922.1,0,1922.1,0"/>
<linearGradient id="SVGID_00000111885215915322150920000014755334287763517119_" gradientUnits="userSpaceOnUse" x1="798.1117" y1="540" x2="1604" y2="540">
	<stop  offset="0.3268" style="stop-color:#236ED9"/>
	<stop  offset="0.4633" style="stop-color:#2382D9"/>
	<stop  offset="0.6783" style="stop-color:#23A8D9"/>
</linearGradient>
<path style="fill:url(#SVGID_00000111885215915322150920000014755334287763517119_);" d="M798.11,1.44v1077.72l611.23,0.84
	c0,0-141.98-134.75,78.55-244.29c42.23-20.98,37.77-84.66,24.43-170.09c-24.97-159.98-81.07-396.22,80.11-571.08
	c102.62-111.34-512.01-93.88-498.72-93.1"/>
<linearGradient id="SVGID_00000111872594611498455090000010284220342242722998_" gradientUnits="userSpaceOnUse" x1="479.8745" y1="539.5" x2="1475.9561" y2="539.5">
	<stop  offset="0.2793" style="stop-color:#23A8D9"/>
	<stop  offset="0.6703" style="stop-color:#236ED9"/>
</linearGradient>
<path style="fill:url(#SVGID_00000111872594611498455090000010284220342242722998_);" d="M479.87,0v1079h549.82
	c0,0,170.18-180.44,68.73-392.72s130.91-176.9,130.91-176.9s350.18,215.82,216-113.22s-274.91-222.9-274.91-222.9
	S754.78,123.83,846.42,0"/>
<linearGradient id="SVGID_00000039849554787459045800000015127926549488369795_" gradientUnits="userSpaceOnUse" x1="0.329" y1="539.5" x2="881.329" y2="539.5">
	<stop  offset="0" style="stop-color:#236ED9"/>
	<stop  offset="0.9567" style="stop-color:#23A8D9"/>
</linearGradient>
<path style="fill:url(#SVGID_00000039849554787459045800000015127926549488369795_);" d="M283.51,343.09c0,0-137.45,194.59,0,339.65
	S0.33,1079,0.33,1079V0l538.45,0c0,0-68.73,137.88,216,169.73s0,396.26,0,396.26S460.24,693.36,509.33,456.31
	S283.51,343.09,283.51,343.09"/>
<linearGradient id="SVGID_00000112599421547249616540000000109572184331412404_" gradientUnits="userSpaceOnUse" x1="0.329" y1="656" x2="778.421" y2="656">
	<stop  offset="0" style="stop-color:#23A8D9"/>
	<stop  offset="1" style="stop-color:#236ED9"/>
</linearGradient>
<path style="fill:url(#SVGID_00000112599421547249616540000000109572184331412404_);" d="M0.33,1079h760.98
	c0,0,65.79-20.46,21.45-57.44c-44.34-36.98-247.71-376.97-100.21-444.86s-193.6-263.77-193.6-263.77S54.42,69.38,168.97,432.55
	s-32.73,519.34-32.73,519.34L0.33,1079z"/>
<linearGradient id="SVGID_00000066484736401702203420000012873134744375536824_" gradientUnits="userSpaceOnUse" x1="-143.2164" y1="-126.751" x2="-143.2164" y2="-126.751">
	<stop  offset="0" style="stop-color:#23A8D9"/>
	<stop  offset="1" style="stop-color:#236ED9"/>
</linearGradient>
<path style="fill:url(#SVGID_00000066484736401702203420000012873134744375536824_);stroke:#000000;stroke-miterlimit:10;" d="
	M-143.22-126.75"/>
<rect x="1249.78" y="649.37" class="st6" width="424.64" height="297"/>
<rect x="331.78" y="646.88" class="st6" width="1217.45" height="353.45"/>
<rect x="869.27" y="56.03" class="st6" width="274.91" height="66.61"/>
</svg>
